<svg width="48px" height="53px" viewBox="0 0 48 53" version="1.1" xmlns="http://www.w3.org/2000/svg" xmlns:xlink="http://www.w3.org/1999/xlink">
    <!-- Generator: Sketch 50.2 (55047) - http://www.bohemiancoding.com/sketch -->
    <!-- Added By Louis 18/6/5-->
    <defs></defs>
    <g id="Page-1" stroke="none" stroke-width="1" fill="none" fill-rule="evenodd">
        <g id="player-1440--00--full-screen" transform="translate(-826.000000, -444.000000)">
            <g id="ic_player_forwards" transform="translate(820.000000, 440.000000)">
                <path d="M52.8601282,32.4262982 C52.230919,32.4262982 51.7202565,32.9321809 51.7202565,33.5555006 C51.7202565,45.2382282 41.9766326,54.7415953 29.9988601,54.7415953 C18.0233674,54.7415953 8.27974353,45.2382282 8.27974353,33.5555006 C8.27974353,22.0940966 17.4716694,12.793986 29.1941107,12.3829563 C29.5429114,12.3761811 38.053194,12.3716643 42.275279,12.3694059 L36.0196628,16.4029167 C35.4907623,16.7416774 35.3402992,17.4417829 35.6845405,17.9634744 C35.9033959,18.2977183 36.2681548,18.4783907 36.6420328,18.4783907 C36.8540489,18.4783907 37.0706246,18.4174137 37.262123,18.2954599 L46.7390169,12.1864751 C47.0650202,11.9764435 47.2587984,11.6218739 47.2587984,11.2402035 C47.2587984,10.8585331 47.0650202,10.5017052 46.7412966,10.293932 L37.262123,4.18268878 C36.7332225,3.84166967 36.0287818,3.99298278 35.6845405,4.51241587 C35.3402992,5.03636576 35.4907623,5.73647123 36.017383,6.07523194 L42.2775588,10.1110012 C38.0281168,10.1132596 29.3559725,10.1177764 29.1234386,10.1245516 C16.1562574,10.5807494 6,20.8722997 6,33.5555006 C6,46.4826092 16.7649489,57 29.9988601,57 C43.2327713,57 54,46.4826092 54,33.5555006 C54,32.9321809 53.4893374,32.4262982 52.8601282,32.4262982" id="Fill-1" fill="#FFFFFF"></path>
                <path d="M23,25 L23,43 L21.2460733,43 L21.2460733,27.6698565 L18.9424084,30.3684211 L18,29.277512 L21.4031414,25 L23,25 Z M36.4709821,24 C40.3303571,24 43,27.9595202 43,33.7136432 C43,39.125937 40.3013393,43 36.5290179,43 C34.5267857,43 32.7857143,41.8890555 31.5959821,39.8665667 C30.5803571,38.071964 30,35.7646177 30,33.3718141 C30,27.9595202 32.7276786,24 36.4709821,24 Z M36.5,26 C33.8409091,26 32,29.2115732 32,33.8987342 C32,35.9529837 32.3798701,37.7757685 33.0811688,39.3092224 C33.9285714,41.1030741 35.0974026,42 36.5876623,42 C39.1006494,42 41,38.6726944 41,34.3037975 C41,29.4719711 39.1006494,26 36.5,26 Z" id="10" fill="#FFFFFF"></path>
                <circle id="Oval" fill-opacity="0" fill="#D8D8D8" cx="30" cy="30" r="30"></circle>
            </g>
        </g>
    </g>
</svg>