<svg viewBox="0 0 48 54" version="1.1" xmlns="http://www.w3.org/2000/svg" xmlns:xlink="http://www.w3.org/1999/xlink">
    <defs></defs>
    <g id="Player" stroke="none" stroke-width="1" fill="none" fill-rule="evenodd">
        <g id="Guideline" transform="translate(-664.000000, -1998.000000)">
            <g id="ic_player_back" transform="translate(658.000000, 1995.000000)">
                <path d="M52.8601282,31.9190292 C52.230919,31.9190292 51.7202565,32.4230028 51.7202565,33.0439704 C51.7202565,44.6826123 41.9766326,54.1501176 29.9988601,54.1501176 C18.0233674,54.1501176 8.27974353,44.6826123 8.27974353,33.0439704 C8.27974353,21.625817 17.4716694,12.3608011 29.1941107,11.9513225 C29.5429114,11.9445729 38.053194,11.9400731 42.275279,11.9378232 L36.0196628,15.9561133 C35.4907623,16.2935956 35.3402992,16.9910592 35.6845405,17.510782 C35.9033959,17.8437646 36.2681548,18.0237552 36.6420328,18.0237552 C36.8540489,18.0237552 37.0706246,17.9630084 37.262123,17.8415148 L46.7390169,11.7555828 C47.0650202,11.5463437 47.2587984,11.1931121 47.2587984,10.812882 C47.2587984,10.4326519 47.0650202,10.0771705 46.7412966,9.87018127 L37.262123,3.78199939 C36.7332225,3.44226714 36.0287818,3.59300926 35.6845405,4.11048222 C35.3402992,4.63245495 35.4907623,5.32991851 36.017383,5.66740087 L42.2775588,9.68794079 C38.0281168,9.69019067 29.3559725,9.69469044 29.1234386,9.70144009 C16.1562574,10.1559163 6,20.4086306 6,33.0439704 C6,45.9222975 16.7649489,56.4 29.9988601,56.4 C43.2327713,56.4 54,45.9222975 54,33.0439704 C54,32.4230028 53.4893374,31.9190292 52.8601282,31.9190292" id="Fill-1" fill="#EA2B40" transform="translate(30.000000, 30.000000) scale(-1, 1) translate(-30.000000, -30.000000) "></path>
                <path d="M23.4571429,24.5714286 L23.4571429,42.4857143 L21.5428571,42.4857143 L21.5428571,27.2285714 L19.0285714,29.9142857 L18,28.8285714 L21.7142857,24.5714286 L23.4571429,24.5714286 Z M36.7714286,24 C40.5714286,24 43.2,27.9714286 43.2,33.7428571 C43.2,39.1714286 40.5428571,43.0571429 36.8285714,43.0571429 C34.8571429,43.0571429 33.1428571,41.9428571 31.9714286,39.9142857 C30.9714286,38.1142857 30.4,35.8 30.4,33.4 C30.4,27.9714286 33.0857143,24 36.7714286,24 Z M36.8,25.6285714 C34.2,25.6285714 32.4,28.8 32.4,33.4285714 C32.4,35.4571429 32.7714286,37.2571429 33.4571429,38.7714286 C34.2857143,40.5428571 35.4285714,41.4285714 36.8857143,41.4285714 C39.3428571,41.4285714 41.2,38.1428571 41.2,33.8285714 C41.2,29.0571429 39.3428571,25.6285714 36.8,25.6285714 Z" id="10" fill="#EA2B40"></path>
                <circle id="Oval" fill-opacity="0" fill="#D8D8D8" cx="30" cy="30" r="30"></circle>
            </g>
        </g>
    </g>
</svg>