
<svg viewBox="0 0 36 32" version="1.1" xmlns="http://www.w3.org/2000/svg" xmlns:xlink="http://www.w3.org/1999/xlink">
    <!-- Generator: Sketch 50.2 (55047) - http://www.bohemiancoding.com/sketch -->
    <desc>Created with Sketch.</desc>
    <defs></defs>
    <g id="Page-1" stroke="none" stroke-width="1" fill="none" fill-rule="evenodd">
        <g id="player-1440--03-setting" transform="translate(-1262.000000, -725.000000)">
            <g id="ic_player_setting" transform="translate(1260.000000, 721.000000)">
                <path d="M20,28.4874035 C16.8601905,28.4874035 14.0088571,26.7333777 12.5602857,23.911139 C11.042381,20.9534929 11.3915238,17.3739764 13.4975238,14.336089 C13.7426667,13.9825256 14.0571429,13.6640677 14.4075238,13.415821 C16.1581905,12.1708263 18.0920952,11.5125965 20,11.5125965 L20.0012381,11.5125965 C23.1410476,11.5125965 25.9911429,13.2666223 27.4409524,16.088861 C28.9588571,19.0465071 28.6084762,22.6260236 26.5024762,25.663911 C26.2573333,26.0187282 25.941619,26.3371861 25.5924762,26.5854327 C23.8418095,27.8291737 21.9079048,28.4874035 20,28.4874035 Z M12.7422857,4 C12.7757143,4.02507542 12.8351429,4.08149512 12.9044762,4.20311092 L13.682,5.56721389 C14.2527619,6.568977 15.3150476,7.19084747 16.4540952,7.19084747 C16.6905714,7.19084747 16.9282857,7.16326451 17.1598095,7.11060612 C18.0970476,6.89495749 19.0615238,6.7858794 20.0247619,6.7858794 C20.8778095,6.7858794 21.7358095,6.87238961 22.5752381,7.04164871 C22.8166667,7.08929201 23.0630476,7.11436743 23.3081905,7.11436743 C24.6205714,7.11436743 25.8400952,6.40473299 26.4913333,5.26254751 L26.6225714,5.03310739 C26.8367619,4.65822983 27.2366667,4.42502841 27.6650476,4.42502841 C27.878,4.42502841 28.0785714,4.47894056 28.2642857,4.58801865 L28.9873333,5.00928574 C29.5605714,5.3452964 29.7586667,6.09129021 29.4268571,6.67304 L29.3253333,6.85232927 C28.5329524,8.24150766 28.7260952,10.0030561 29.8069524,11.2380206 C30.386381,11.9000118 30.9026667,12.6246915 31.3409524,13.3932531 C31.765619,14.139247 32.1197143,14.927869 32.3920952,15.7403127 C32.9145714,17.2924813 34.3222857,18.3368726 35.8971429,18.3368726 L36.1311429,18.3368726 C36.7947619,18.3368726 37.3333333,18.8822631 37.3333333,19.5542844 L37.3333333,20.9058496 C37.3333333,21.3233554 36.9854286,21.6154841 36.4877143,21.6154841 L35.9033333,21.6154841 C34.3235238,21.6154841 32.9195238,22.6548603 32.4081905,24.2007601 C31.8510476,25.888336 30.9831429,27.416683 29.828,28.7431728 C28.7681905,29.9605846 28.5849524,31.705834 29.373619,33.0887435 L29.5098095,33.32696 C29.6695238,33.6090585 29.7128571,33.9375465 29.6299048,34.2509893 C29.5457143,34.5656859 29.347619,34.827724 29.0690476,34.9907143 L27.3406667,36 C27.3072381,35.9761783 27.2478095,35.9185049 27.1784762,35.7968891 L26.5693333,34.7286761 C25.9180952,33.5864906 24.6948571,32.8781099 23.3775238,32.8781099 C23.1261905,32.8781099 22.873619,32.9031854 22.626,32.9533362 C21.7853333,33.1263566 20.922381,33.2141206 20.0619048,33.2141206 C19.1754286,33.2141206 18.284,33.1200878 17.412381,32.938291 C17.1573333,32.8843788 16.8973333,32.8580496 16.6385714,32.8580496 C15.3175238,32.8580496 14.0930476,33.5664303 13.4430476,34.707362 L13.2957143,34.9668926 C13.0815238,35.3430239 12.681619,35.5762254 12.252,35.5762254 C12.0402857,35.5762254 11.8397143,35.5210594 11.654,35.4119814 L10.9309524,34.9907143 C10.653619,34.827724 10.4542857,34.5656859 10.3713333,34.2509893 C10.288381,33.9375465 10.3304762,33.6090585 10.4914286,33.32696 L10.6573333,33.0360851 C11.4422857,31.6594444 11.2565714,29.9054186 10.1967619,28.6704541 C9.64952381,28.0347921 9.16047619,27.340203 8.742,26.6067469 C8.31114286,25.8494691 7.95333333,25.0470556 7.6772381,24.2220742 C7.15971429,22.6623829 5.74952381,21.6154841 4.17095238,21.6154841 L3.86885714,21.6154841 C3.20647619,21.6154841 2.66666667,21.0688399 2.66666667,20.3980723 L2.66666667,19.0465071 C2.66666667,18.6277475 3.01952381,18.3368726 3.52342857,18.3368726 L4.19447619,18.3368726 C5.76933333,18.3368726 7.17209524,17.3012577 7.68590476,15.7616268 C8.24428571,14.0890961 9.10847619,12.5745406 10.2537143,11.2580809 C11.3147619,10.0406692 11.498,8.29416605 10.7093333,6.91125651 L10.5731429,6.67304 C10.4134286,6.3909415 10.3700952,6.06370724 10.4542857,5.7490107 C10.536,5.43556792 10.7353333,5.17227599 11.0139048,5.01053951 L12.7422857,4" fill="#EA2B40"></path>
                <circle id="bg" cx="20" cy="20" r="20"></circle>
            </g>
        </g>
    </g>
</svg>